<svg width="24" height="33" viewBox="0 0 24 33" fill="none" xmlns="http://www.w3.org/2000/svg">
<path opacity="0.4" d="M14.9416 4.55181C14.9996 4.98939 14.5818 5.31836 14.1438 5.26436C10.0544 4.76032 4.6378 7.66719 2.94969 11.435C2.76637 11.8442 2.25775 12.0336 1.913 11.7469C1.23709 11.1849 0.656387 10.4957 0.300071 9.69794C-0.0659626 8.87841 -0.181912 7.86823 0.444154 7.01978C0.887204 6.41934 1.60382 6.04109 2.52417 5.84727C1.91299 3.37232 2.60719 1.28764 4.28324 0.401559C5.96039 -0.485108 8.07825 0.115625 9.78194 2.01521C10.4701 1.36143 11.1894 0.979475 11.9333 0.948625C12.9886 0.904858 13.7503 1.57038 14.2121 2.33436C14.5934 2.96504 14.8338 3.73956 14.9416 4.55181Z" fill="#FE9F6B"/>
<path d="M7.72282 22.0552C7.36077 22.2467 6.91225 22.147 6.6716 21.8155C4.96214 19.4612 3.75244 17.2767 3.50585 15.9947C3.12932 14.0167 3.03205 10.7288 8.37002 7.90403C13.7097 5.07923 16.3742 7.01046 17.7955 8.43548C18.1685 8.80981 18.575 9.39773 18.992 10.1465C19.2124 10.5422 19.052 11.0367 18.6517 11.2486L14.6809 13.3495C14.0707 13.6725 13.8377 14.4288 14.1605 15.039C14.4835 15.6492 15.2399 15.8822 15.85 15.5593L19.5645 13.5938C20.0034 13.3618 20.5469 13.5618 20.7184 14.0275C21.3597 15.7683 21.9477 17.7328 22.3895 19.7078C22.4705 20.0698 22.296 20.4395 21.9682 20.613L18.9727 22.1983C18.3625 22.5213 18.1297 23.2777 18.4527 23.8878C18.7755 24.498 19.532 24.7308 20.1422 24.408L21.9089 23.473C22.4219 23.2013 23.0484 23.5248 23.1007 24.1028C23.4287 27.7295 22.9444 30.7893 20.9717 31.7238C18.1472 33.3817 13.2527 29.5767 9.35485 25.1598C9.00319 24.7613 9.12385 24.1423 9.59369 23.8938L12.3064 22.459C12.9167 22.1362 13.1497 21.3798 12.8269 20.7695C12.5042 20.1593 11.7479 19.9263 11.1375 20.249L7.72282 22.0552Z" fill="#FE9F6B"/>
</svg>
