<svg width="40" height="42" viewBox="0 0 40 42" fill="none" xmlns="http://www.w3.org/2000/svg">
<path d="M22.6768 7.99598V16.811L17.3218 25.856H9.02688C8.08522 25.856 7.23522 25.3344 6.80688 24.496C6.38022 23.6577 6.45688 22.6627 7.01188 21.901L18.1702 6.53098C18.8168 5.64098 19.9085 5.28431 20.9552 5.62598C22.0018 5.96431 22.6768 6.89431 22.6768 7.99598Z" fill="#49AC9B"/>
<path opacity="0.4" d="M17.2927 34.6653V25.8503L22.6477 16.8053H30.9427C31.8844 16.8053 32.7344 17.3269 33.1627 18.1653C33.5894 19.0036 33.5127 19.9986 32.9577 20.7603L21.7994 36.1303C21.1527 37.0203 20.0611 37.3769 19.0144 37.0352C17.9677 36.6969 17.2927 35.7669 17.2927 34.6653Z" fill="#49AC9B"/>
</svg>
