<svg width="25" height="22" viewBox="0 0 25 22" fill="none" xmlns="http://www.w3.org/2000/svg">
<g clip-path="url(#clip0_1640_148)">
<path d="M5.37573 1.48075C8.24036 3.63133 11.3216 7.99182 12.4529 10.3319C13.5842 7.992 16.6653 3.63129 19.53 1.48075C21.597 -0.0710276 24.946 -1.2717 24.946 2.54891C24.946 3.31194 24.5085 8.95875 24.2519 9.87549C23.3601 13.0627 20.1101 13.8756 17.2192 13.3836C22.2724 14.2436 23.5579 17.0924 20.7817 19.9412C15.5092 25.3516 13.2036 18.5837 12.6125 16.8495C12.5042 16.5316 12.4535 16.3829 12.4528 16.5094C12.452 16.3829 12.4014 16.5316 12.2931 16.8495C11.7023 18.5837 9.39669 25.3518 4.12386 19.9412C1.34762 17.0924 2.63308 14.2435 7.68642 13.3836C4.79543 13.8756 1.5454 13.0627 0.653653 9.87549C0.397061 8.95866 -0.0404053 3.31185 -0.0404053 2.54891C-0.0404053 -1.2717 3.3087 -0.0710276 5.37558 1.48075H5.37573Z" fill="#163A34"/>
</g>
<defs>
<clipPath id="clip0_1640_148">
<rect width="24.9057" height="22" fill="white"/>
</clipPath>
</defs>
</svg>
