<svg width="22" height="22" viewBox="0 0 22 22" fill="none" xmlns="http://www.w3.org/2000/svg">
<path fill-rule="evenodd" clip-rule="evenodd" d="M10.8201 8.19775C9.06238 8.19775 7.63232 9.62544 7.63232 11.382C7.63232 13.1385 9.06238 14.5662 10.8201 14.5662C12.5777 14.5662 14.0066 13.1385 14.0066 11.382C14.0066 9.62544 12.5777 8.19775 10.8201 8.19775Z" fill="#163A34"/>
<path fill-rule="evenodd" clip-rule="evenodd" d="M16.632 6.842C15.972 6.842 15.4336 6.30705 15.4336 5.65052C15.4336 4.99168 15.972 4.45673 16.632 4.45673C17.292 4.45673 17.8293 4.99168 17.8293 5.65052C17.8293 6.30705 17.292 6.842 16.632 6.842ZM10.8194 16.3032C8.10526 16.3032 5.896 14.0962 5.896 11.3821C5.896 8.66801 8.10526 6.46105 10.8194 6.46105C13.5346 6.46105 15.7427 8.66801 15.7427 11.3821C15.7427 14.0962 13.5346 16.3032 10.8194 16.3032ZM15.8828 0H6.116C2.45821 0 0 2.57284 0 6.40315V15.5968C0 19.426 2.45821 22 6.116 22H15.8817C19.5406 22 22 19.426 22 15.5968V6.40315C22 2.57284 19.5418 0 15.8828 0Z" fill="#163A34"/>
</svg>
