<svg width="20" height="22" viewBox="0 0 20 22" fill="none" xmlns="http://www.w3.org/2000/svg">
<path d="M19.25 9.02344H19.207C17.2305 9.02344 15.4258 8.42188 13.9648 7.34766V15.0391C13.9648 18.9062 10.8281 22 6.96094 22C3.09375 22 0 18.9062 0 15.0391C0 11.1719 3.09375 8.03516 6.96094 8.03516C7.30469 8.03516 7.60547 8.07812 7.94922 8.12109V11.9883C7.60547 11.8594 7.30469 11.8164 6.96094 11.8164C5.19922 11.8164 3.73828 13.2773 3.73828 15.0391C3.73828 16.8008 5.19922 18.2617 6.96094 18.2617C8.72266 18.2617 10.1836 16.8008 10.1836 15.0391V0H13.9648C13.9648 0.0429688 13.9648 0.0429688 13.9648 0.0859375C13.9648 0.386719 13.9648 0.6875 14.0508 0.988281C14.3086 2.40625 15.168 3.65234 16.3711 4.42578C17.1875 4.98438 18.1758 5.28516 19.207 5.28516C19.207 5.28516 19.207 5.28516 19.25 5.28516V9.02344Z" fill="#163A34"/>
</svg>
